<svg width="58" height="11" viewBox="0 0 58 11" fill="none" xmlns="http://www.w3.org/2000/svg">
<path d="M0.177979 3.13868H1.02093L1.06776 4.16192C1.2785 3.78983 1.55948 3.51077 1.91071 3.32472C2.26194 3.11542 2.66 3.0224 3.08147 3.0224C3.45612 3.04566 3.80735 3.11542 4.13516 3.2317C4.43956 3.37123 4.72054 3.55728 4.95469 3.78983C5.18885 4.02239 5.35275 4.32471 5.46983 4.65029C5.58691 4.97587 5.65715 5.37121 5.65715 5.78981C5.65715 6.20841 5.58691 6.5805 5.46983 6.92933C5.35275 7.27816 5.16543 7.55723 4.95469 7.78979C4.72054 8.02234 4.46297 8.20839 4.13516 8.34792C3.80735 8.48745 3.45612 8.53396 3.05806 8.53396C2.68341 8.53396 2.30877 8.44094 1.93412 8.27815C1.55948 8.11536 1.2785 7.8363 1.04434 7.46421V10.906H0.177979V3.13868ZM2.98781 7.69676C3.52636 7.69676 3.94784 7.53398 4.27565 7.18514C4.60347 6.85957 4.76737 6.3712 4.76737 5.76655C4.76737 5.13865 4.60347 4.67354 4.27565 4.34797C3.94784 4.02239 3.52636 3.8596 2.98781 3.8596C2.70683 3.8596 2.44926 3.90611 2.23852 3.99913C2.00437 4.09215 1.81705 4.23169 1.65314 4.39448C1.48923 4.55727 1.37216 4.76657 1.2785 4.99912C1.18484 5.23168 1.13801 5.48749 1.13801 5.76655C1.13801 6.04562 1.18484 6.27818 1.2785 6.53399C1.37216 6.76654 1.48923 6.97584 1.65314 7.13863C1.81705 7.30142 2.00437 7.44095 2.23852 7.53398C2.47268 7.65025 2.70683 7.69676 2.98781 7.69676Z" fill="black"/>
<path d="M7.85843 8.39441H6.99207V0.929382H7.85843V8.39441Z" fill="black"/>
<path d="M13.8995 8.39443L13.876 7.46421C13.759 7.65026 13.6419 7.78979 13.5014 7.92932C13.3609 8.06886 13.197 8.16188 13.0331 8.2549C12.8692 8.34792 12.6819 8.41769 12.4945 8.44094C12.3072 8.48745 12.1199 8.51071 11.9326 8.51071C11.5579 8.51071 11.2067 8.44094 10.8555 8.32467C10.5277 8.18513 10.2233 8.02234 9.98911 7.76653C9.75496 7.53398 9.54422 7.23166 9.40373 6.90608C9.26324 6.55725 9.19299 6.18516 9.19299 5.7433C9.19299 5.30145 9.26324 4.9061 9.40373 4.55727C9.54422 4.20843 9.73154 3.92937 9.98911 3.69681C10.2467 3.46426 10.5277 3.27821 10.8555 3.16194C11.1833 3.04566 11.5345 2.97589 11.9092 2.97589C12.3306 2.97589 12.7053 3.06891 13.0565 3.2317C13.4077 3.39449 13.6653 3.67356 13.876 4.04565V3.09217H14.7424V8.37118H13.8995V8.39443ZM11.956 3.83635C11.6984 3.83635 11.4409 3.88286 11.2067 3.97588C10.9726 4.0689 10.7618 4.18518 10.5979 4.34797C10.434 4.51076 10.2935 4.72006 10.1998 4.95261C10.1062 5.20842 10.0594 5.46423 10.0594 5.78981C10.0594 6.09213 10.1062 6.34795 10.1998 6.5805C10.2935 6.81306 10.434 7.02236 10.5979 7.18514C10.7618 7.34793 10.9726 7.48747 11.2067 7.58049C11.4409 7.67351 11.6984 7.72002 11.956 7.72002C12.3775 7.72002 12.7521 7.627 13.0331 7.44096C13.3141 7.25491 13.5248 6.9991 13.6887 6.72003C13.8292 6.44097 13.8995 6.11539 13.8995 5.78981C13.8995 5.44098 13.8292 5.13866 13.6887 4.85959C13.5482 4.58052 13.3375 4.32471 13.0331 4.13867C12.7521 3.92937 12.4009 3.83635 11.956 3.83635Z" fill="black"/>
<path d="M20.807 7.72002C20.526 7.99908 20.2216 8.20838 19.8938 8.34792C19.566 8.48745 19.2147 8.53396 18.8401 8.53396C18.4654 8.53396 18.0908 8.4642 17.763 8.34792C17.4352 8.23164 17.1308 8.0456 16.8732 7.81304C16.6156 7.58049 16.4283 7.30142 16.2878 6.95259C16.1473 6.60375 16.0771 6.20841 16.0771 5.78981C16.0771 5.34795 16.1473 4.97586 16.2878 4.62703C16.4283 4.2782 16.6391 3.99913 16.8732 3.76658C17.1308 3.53402 17.4118 3.34798 17.763 3.2317C18.0908 3.11542 18.4654 3.04565 18.8401 3.04565C19.2147 3.04565 19.5425 3.11542 19.8704 3.2317C20.1748 3.37123 20.4792 3.55728 20.7836 3.83634L20.2216 4.41773C20.0343 4.23169 19.8235 4.09215 19.5894 4.02239C19.3552 3.92937 19.1211 3.88285 18.8869 3.88285C18.6294 3.88285 18.3718 3.92937 18.1376 4.02239C17.9035 4.11541 17.6927 4.23169 17.5288 4.39448C17.3649 4.55726 17.2244 4.76656 17.1308 4.99912C17.0371 5.23168 16.9903 5.51074 16.9903 5.81306C16.9903 6.11539 17.0371 6.39445 17.1308 6.65026C17.2244 6.88282 17.3649 7.09212 17.5523 7.25491C17.7162 7.4177 17.9269 7.53397 18.161 7.627C18.3952 7.72002 18.6294 7.76653 18.8869 7.76653C19.1445 7.76653 19.3786 7.72002 19.6362 7.627C19.8704 7.53397 20.1045 7.39444 20.2918 7.2084L20.807 7.72002Z" fill="black"/>
<path d="M26.5671 7.58049C26.2861 7.90606 25.9349 8.13862 25.5134 8.30141C25.092 8.4642 24.6705 8.53397 24.2724 8.53397C23.8744 8.53397 23.4997 8.4642 23.1485 8.34792C22.7973 8.20839 22.5163 8.0456 22.2587 7.78979C22.0011 7.55723 21.8138 7.25491 21.6733 6.90608C21.5328 6.55724 21.4626 6.18515 21.4626 5.7433C21.4626 5.34795 21.5328 4.97587 21.6733 4.65029C21.8138 4.32471 22.0011 4.02239 22.2353 3.78983C22.4694 3.55728 22.7738 3.34798 23.1017 3.2317C23.4295 3.09217 23.8041 3.0224 24.2022 3.0224C24.6002 3.0224 24.9749 3.09217 25.3261 3.20844C25.6773 3.32472 25.9583 3.51077 26.2159 3.76658C26.45 4.02239 26.6374 4.34797 26.7544 4.72006C26.8715 5.1154 26.8949 5.55725 26.8481 6.06888H22.3289C22.3524 6.32469 22.4226 6.55724 22.5163 6.76654C22.6333 6.97584 22.7738 7.13863 22.9377 7.27817C23.1017 7.4177 23.3124 7.53398 23.5231 7.60374C23.7573 7.67351 23.9914 7.72002 24.249 7.72002C24.3895 7.72002 24.5534 7.69677 24.7173 7.67351C24.8812 7.65025 25.0451 7.60374 25.1856 7.55723C25.3261 7.51072 25.4666 7.44095 25.6071 7.34793C25.7476 7.25491 25.8412 7.16189 25.9349 7.06887L26.5671 7.58049ZM26.0286 5.34795C26.0051 4.83633 25.8412 4.44099 25.5134 4.18518C25.1856 3.92937 24.7641 3.78983 24.249 3.78983C24.0149 3.78983 23.8041 3.81309 23.5934 3.88286C23.3826 3.95262 23.1953 4.04564 23.0314 4.16192C22.8675 4.30146 22.727 4.44099 22.6099 4.65029C22.4929 4.83633 22.4226 5.06889 22.3758 5.3247H26.0286V5.34795Z" fill="black"/>
<path d="M29.5644 3.11543H31.2034V3.85961H29.5644V6.7433C29.5644 7.04562 29.6346 7.30143 29.7517 7.48747C29.8688 7.67352 30.0795 7.76654 30.4073 7.76654C30.5244 7.76654 30.6415 7.74328 30.782 7.69677C30.899 7.65026 31.0161 7.60375 31.1566 7.55724L31.4142 8.27816C31.063 8.44095 30.7351 8.53397 30.3839 8.53397C29.7985 8.55723 29.3771 8.39444 29.1195 8.09212C28.8619 7.76654 28.7214 7.32468 28.7214 6.7433V3.85961H27.6209V3.11543H28.6746V1.69684L29.5644 1.60382V3.11543Z" fill="#FF7E29"/>
<path d="M31.9993 5.76656C31.9993 5.37121 32.0696 4.99912 32.2101 4.65029C32.3506 4.30146 32.5379 4.02239 32.7955 3.76658C33.0296 3.53402 33.334 3.32472 33.6618 3.20845C33.9896 3.06891 34.3643 2.99915 34.7623 2.99915C35.1604 2.99915 35.535 3.06891 35.8629 3.20845C36.2141 3.34798 36.4951 3.53402 36.7526 3.76658C37.0102 3.99913 37.1975 4.30146 37.338 4.65029C37.4785 4.99912 37.5488 5.37121 37.5488 5.76656C37.5488 6.1619 37.4785 6.53399 37.338 6.88282C37.1975 7.23166 37.0102 7.51072 36.7526 7.74328C36.4951 7.97583 36.2141 8.18513 35.8629 8.30141C35.5116 8.44094 35.1604 8.51071 34.7623 8.51071C34.3643 8.51071 33.9896 8.44094 33.6618 8.30141C33.334 8.16188 33.0296 7.97583 32.7955 7.74328C32.5379 7.51072 32.3506 7.2084 32.2101 6.88282C32.0696 6.55724 31.9993 6.18516 31.9993 5.76656ZM36.6356 5.76656C36.6356 5.46423 36.5887 5.20842 36.4951 4.97587C36.4014 4.74331 36.2609 4.53401 36.097 4.37122C35.9331 4.20843 35.7224 4.0689 35.5116 3.97588C35.2775 3.88286 35.0433 3.83635 34.7623 3.83635C34.4813 3.83635 34.2472 3.88286 34.013 3.97588C33.7789 4.0689 33.5916 4.20843 33.4277 4.37122C33.2638 4.53401 33.1233 4.74331 33.0296 4.97587C32.9359 5.20842 32.8891 5.48749 32.8891 5.76656C32.8891 6.04562 32.9359 6.30143 33.0296 6.55724C33.1233 6.7898 33.2638 6.9991 33.4277 7.16189C33.5916 7.32468 33.7789 7.46421 34.013 7.55723C34.2472 7.65026 34.4813 7.69677 34.7623 7.69677C35.0433 7.69677 35.2775 7.65026 35.5116 7.55723C35.7458 7.46421 35.9565 7.32468 36.1204 7.16189C36.2843 6.9991 36.4248 6.7898 36.5185 6.55724C36.5887 6.32469 36.6356 6.06888 36.6356 5.76656Z" fill="#FF7E29"/>
<path d="M38.8834 3.13868H39.7264L39.7732 4.16192C39.9839 3.78983 40.2649 3.51077 40.6162 3.32472C40.9674 3.11542 41.3654 3.0224 41.7869 3.0224C42.1616 3.04566 42.5128 3.11542 42.8406 3.2317C43.145 3.37123 43.426 3.55728 43.6601 3.78983C43.8943 4.02239 44.0582 4.32471 44.1753 4.65029C44.2923 4.97587 44.3626 5.37121 44.3626 5.78981C44.3626 6.20841 44.2923 6.5805 44.1753 6.92933C44.0582 7.27816 43.8709 7.55723 43.6601 7.78979C43.426 8.02234 43.1684 8.20839 42.8406 8.34792C42.5128 8.48745 42.1616 8.53396 41.7635 8.53396C41.3889 8.53396 41.0142 8.44094 40.6396 8.27815C40.2649 8.11536 39.9839 7.8363 39.7498 7.46421V10.906H38.8834V3.13868ZM41.6933 7.69676C42.2318 7.69676 42.6533 7.53398 42.9811 7.18514C43.3089 6.85957 43.4728 6.3712 43.4728 5.76655C43.4728 5.13865 43.3089 4.67354 42.9811 4.34797C42.6533 4.02239 42.2318 3.8596 41.6933 3.8596C41.4123 3.8596 41.1547 3.90611 40.944 3.99913C40.7098 4.09215 40.5225 4.23169 40.3586 4.39448C40.1947 4.55727 40.0776 4.76657 39.9839 4.99912C39.8903 5.23168 39.8434 5.48749 39.8434 5.76655C39.8434 6.04562 39.8903 6.27818 39.9839 6.53399C40.0776 6.76654 40.1947 6.97584 40.3586 7.13863C40.5225 7.30142 40.7098 7.44095 40.944 7.53398C41.1781 7.65025 41.4357 7.69676 41.6933 7.69676Z" fill="black"/>
<path d="M50.0058 8.39443L49.9824 7.46421C49.8653 7.65026 49.7482 7.78979 49.6077 7.92932C49.4672 8.06886 49.3033 8.16188 49.1394 8.2549C48.9755 8.34792 48.7882 8.41769 48.6009 8.44094C48.4135 8.48745 48.2262 8.51071 48.0389 8.51071C47.6643 8.51071 47.313 8.44094 46.9618 8.32467C46.634 8.18513 46.3296 8.02234 46.0954 7.76653C45.8613 7.53398 45.6505 7.23166 45.5101 6.90608C45.3696 6.55725 45.2993 6.18516 45.2993 5.7433C45.2993 5.30145 45.3696 4.9061 45.5101 4.55727C45.6505 4.20843 45.8379 3.92937 46.0954 3.69681C46.353 3.46426 46.634 3.27821 46.9618 3.16194C47.2896 3.04566 47.6408 2.97589 48.0155 2.97589C48.437 2.97589 48.8116 3.06891 49.1628 3.2317C49.5141 3.39449 49.7716 3.67356 49.9824 4.04565V3.09217H50.8487V8.37118H50.0058V8.39443ZM48.0623 3.83635C47.8047 3.83635 47.5472 3.88286 47.313 3.97588C47.0789 4.0689 46.8681 4.18518 46.7042 4.34797C46.5403 4.51076 46.3998 4.72006 46.3062 4.95261C46.2125 5.20842 46.1657 5.46423 46.1657 5.78981C46.1657 6.09213 46.2125 6.34795 46.3062 6.5805C46.3998 6.81306 46.5403 7.02236 46.7042 7.18514C46.8681 7.34793 47.0789 7.48747 47.313 7.58049C47.5472 7.67351 47.8047 7.72002 48.0623 7.72002C48.4838 7.72002 48.8584 7.627 49.1394 7.44096C49.4204 7.25491 49.6311 6.9991 49.7951 6.72003C49.9355 6.44097 50.0058 6.11539 50.0058 5.78981C50.0058 5.44098 49.9355 5.13866 49.7951 4.85959C49.6546 4.58052 49.4438 4.32471 49.1394 4.13867C48.8584 3.92937 48.4838 3.83635 48.0623 3.83635Z" fill="black"/>
<path d="M53.9865 10.906H53.0265L54.1504 8.32466L51.9962 3.13867H53.0031L54.0568 5.85957L54.6421 7.37118L55.2041 5.85957L56.3749 3.11542H57.3349L53.9865 10.906Z" fill="black"/>
</svg>
