<svg width="58" height="11" viewBox="0 0 58 11" fill="none" xmlns="http://www.w3.org/2000/svg">
<path d="M0.177734 3.13862H1.02068L1.06751 4.16186C1.27825 3.78977 1.55923 3.51071 1.91046 3.32466C2.26169 3.11536 2.65975 3.02234 3.08123 3.02234C3.45587 3.04559 3.8071 3.11536 4.13491 3.23164C4.43931 3.37117 4.72029 3.55722 4.95445 3.78977C5.1886 4.02233 5.35251 4.32465 5.46958 4.65023C5.58666 4.9758 5.6569 5.37115 5.6569 5.78975C5.6569 6.20835 5.58666 6.58043 5.46958 6.92927C5.35251 7.2781 5.16518 7.55717 4.95445 7.78972C4.72029 8.02228 4.46273 8.20832 4.13491 8.34786C3.8071 8.48739 3.45587 8.5339 3.05781 8.5339C2.68317 8.5339 2.30852 8.44088 1.93388 8.27809C1.55923 8.1153 1.27825 7.83623 1.0441 7.46414V10.906H0.177734V3.13862ZM2.98757 7.6967C3.52612 7.6967 3.94759 7.53391 4.2754 7.18508C4.60322 6.8595 4.76712 6.37113 4.76712 5.76649C4.76712 5.13859 4.60322 4.67348 4.2754 4.3479C3.94759 4.02233 3.52612 3.85954 2.98757 3.85954C2.70658 3.85954 2.44901 3.90605 2.23828 3.99907C2.00412 4.09209 1.8168 4.23163 1.6529 4.39442C1.48899 4.5572 1.37191 4.7665 1.27825 4.99906C1.18459 5.23161 1.13776 5.48742 1.13776 5.76649C1.13776 6.04556 1.18459 6.27811 1.27825 6.53392C1.37191 6.76648 1.48899 6.97578 1.6529 7.13857C1.8168 7.30136 2.00412 7.44089 2.23828 7.53391C2.47243 7.65019 2.70658 7.6967 2.98757 7.6967Z" fill="white"/>
<path d="M7.85855 8.39441H6.99219V0.929382H7.85855V8.39441Z" fill="white"/>
<path d="M13.8988 8.3944L13.8754 7.46418C13.7584 7.65022 13.6413 7.78975 13.5008 7.92929C13.3603 8.06882 13.1964 8.16184 13.0325 8.25487C12.8686 8.34789 12.6813 8.41765 12.4939 8.44091C12.3066 8.48742 12.1193 8.51068 11.932 8.51068C11.5573 8.51068 11.2061 8.44091 10.8549 8.32463C10.5271 8.1851 10.2227 8.02231 9.9885 7.7665C9.75435 7.53394 9.54361 7.23162 9.40312 6.90604C9.26263 6.55721 9.19238 6.18512 9.19238 5.74327C9.19238 5.30141 9.26263 4.90607 9.40312 4.55724C9.54361 4.2084 9.73093 3.92934 9.9885 3.69678C10.2461 3.46423 10.5271 3.27818 10.8549 3.1619C11.1827 3.04563 11.5339 2.97586 11.9086 2.97586C12.33 2.97586 12.7047 3.06888 13.0559 3.23167C13.4071 3.39446 13.6647 3.67353 13.8754 4.04561V3.09214H14.7418V8.37114H13.8988V8.3944ZM11.9554 3.83632C11.6978 3.83632 11.4402 3.88283 11.2061 3.97585C10.9719 4.06887 10.7612 4.18515 10.5973 4.34794C10.4334 4.51073 10.2929 4.72003 10.1992 4.95258C10.1056 5.20839 10.0587 5.4642 10.0587 5.78978C10.0587 6.0921 10.1056 6.34791 10.1992 6.58047C10.2929 6.81302 10.4334 7.02232 10.5973 7.18511C10.7612 7.3479 10.9719 7.48743 11.2061 7.58045C11.4402 7.67348 11.6978 7.71999 11.9554 7.71999C12.3769 7.71999 12.7515 7.62697 13.0325 7.44092C13.3135 7.25488 13.5242 6.99907 13.6881 6.72C13.8286 6.44093 13.8988 6.11536 13.8988 5.78978C13.8988 5.44095 13.8286 5.13862 13.6881 4.85956C13.5476 4.58049 13.3369 4.32468 13.0325 4.13864C12.7515 3.92934 12.4003 3.83632 11.9554 3.83632Z" fill="white"/>
<path d="M20.807 7.71998C20.526 7.99905 20.2216 8.20835 19.8938 8.34788C19.566 8.48742 19.2148 8.53393 18.8401 8.53393C18.4655 8.53393 18.0909 8.46416 17.763 8.34788C17.4352 8.23161 17.1308 8.04556 16.8733 7.81301C16.6157 7.58045 16.4284 7.30138 16.2879 6.95255C16.1474 6.60372 16.0771 6.20838 16.0771 5.78978C16.0771 5.34792 16.1474 4.97583 16.2879 4.627C16.4284 4.27817 16.6391 3.9991 16.8733 3.76655C17.1308 3.53399 17.4118 3.34795 17.763 3.23167C18.0909 3.11539 18.4655 3.04562 18.8401 3.04562C19.2148 3.04562 19.5426 3.11539 19.8704 3.23167C20.1748 3.3712 20.4792 3.55725 20.7836 3.83631L20.2216 4.4177C20.0343 4.23166 19.8236 4.09212 19.5894 4.02236C19.3553 3.92933 19.1211 3.88282 18.887 3.88282C18.6294 3.88282 18.3718 3.92933 18.1377 4.02236C17.9035 4.11538 17.6928 4.23166 17.5289 4.39444C17.365 4.55723 17.2245 4.76653 17.1308 4.99909C17.0372 5.23164 16.9903 5.51071 16.9903 5.81303C16.9903 6.11535 17.0372 6.39442 17.1308 6.65023C17.2245 6.88279 17.365 7.09208 17.5523 7.25487C17.7162 7.41766 17.927 7.53394 18.1611 7.62696C18.3953 7.71998 18.6294 7.7665 18.887 7.7665C19.1445 7.7665 19.3787 7.71998 19.6363 7.62696C19.8704 7.53394 20.1046 7.39441 20.2919 7.20836L20.807 7.71998Z" fill="white"/>
<path d="M26.5664 7.58042C26.2855 7.906 25.9342 8.13856 25.5128 8.30134C25.0913 8.46413 24.6698 8.5339 24.2717 8.5339C23.8737 8.5339 23.499 8.46413 23.1478 8.34786C22.7966 8.20832 22.5156 8.04553 22.258 7.78972C22.0005 7.55717 21.8131 7.25485 21.6727 6.90601C21.5322 6.55718 21.4619 6.18509 21.4619 5.74324C21.4619 5.34789 21.5322 4.9758 21.6727 4.65023C21.8131 4.32465 22.0005 4.02233 22.2346 3.78977C22.4688 3.55722 22.7732 3.34792 23.101 3.23164C23.4288 3.09211 23.8034 3.02234 24.2015 3.02234C24.5996 3.02234 24.9742 3.09211 25.3254 3.20838C25.6767 3.32466 25.9576 3.5107 26.2152 3.76652C26.4494 4.02233 26.6367 4.3479 26.7538 4.71999C26.8708 5.11534 26.8943 5.55719 26.8474 6.06881H22.3283C22.3517 6.32462 22.4219 6.55718 22.5156 6.76648C22.6327 6.97578 22.7732 7.13857 22.9371 7.2781C23.101 7.41763 23.3117 7.53391 23.5225 7.60368C23.7566 7.67345 23.9908 7.71996 24.2483 7.71996C24.3888 7.71996 24.5527 7.6967 24.7166 7.67344C24.8805 7.65019 25.0445 7.60368 25.1849 7.55717C25.3254 7.51066 25.4659 7.44089 25.6064 7.34787C25.7469 7.25485 25.8406 7.16182 25.9342 7.0688L26.5664 7.58042ZM26.0279 5.34789C26.0045 4.83627 25.8406 4.44093 25.5128 4.18512C25.1849 3.9293 24.7635 3.78977 24.2483 3.78977C24.0142 3.78977 23.8034 3.81303 23.5927 3.88279C23.382 3.95256 23.1946 4.04558 23.0307 4.16186C22.8668 4.30139 22.7263 4.44093 22.6093 4.65023C22.4922 4.83627 22.4219 5.06883 22.3751 5.32464H26.0279V5.34789Z" fill="white"/>
<path d="M29.5646 3.1154H31.2036V3.85958H29.5646V6.74326C29.5646 7.04558 29.6348 7.30139 29.7519 7.48744C29.869 7.67348 30.0797 7.7665 30.4075 7.7665C30.5246 7.7665 30.6417 7.74325 30.7822 7.69674C30.8992 7.65023 31.0163 7.60372 31.1568 7.5572L31.4144 8.27813C31.0631 8.44092 30.7353 8.53394 30.3841 8.53394C29.7987 8.55719 29.3772 8.3944 29.1197 8.09208C28.8621 7.7665 28.7216 7.32465 28.7216 6.74326V3.85958H27.6211V3.1154H28.6748V1.69681L29.5646 1.60379V3.1154Z" fill="#FF6C0C"/>
<path d="M31.999 5.76649C31.999 5.37115 32.0693 4.99906 32.2098 4.65023C32.3503 4.30139 32.5376 4.02233 32.7951 3.76652C33.0293 3.53396 33.3337 3.32466 33.6615 3.20838C33.9893 3.06885 34.364 2.99908 34.762 2.99908C35.1601 2.99908 35.5347 3.06885 35.8625 3.20838C36.2138 3.34792 36.4948 3.53396 36.7523 3.76652C37.0099 3.99907 37.1972 4.30139 37.3377 4.65023C37.4782 4.99906 37.5484 5.37115 37.5484 5.76649C37.5484 6.16184 37.4782 6.53393 37.3377 6.88276C37.1972 7.23159 37.0099 7.51066 36.7523 7.74321C36.4948 7.97577 36.2138 8.18507 35.8625 8.30135C35.5113 8.44088 35.1601 8.51065 34.762 8.51065C34.364 8.51065 33.9893 8.44088 33.6615 8.30135C33.3337 8.16181 33.0293 7.97577 32.7951 7.74321C32.5376 7.51066 32.3503 7.20834 32.2098 6.88276C32.0693 6.55718 31.999 6.18509 31.999 5.76649ZM36.6352 5.76649C36.6352 5.46417 36.5884 5.20836 36.4948 4.9758C36.4011 4.74325 36.2606 4.53395 36.0967 4.37116C35.9328 4.20837 35.7221 4.06884 35.5113 3.97582C35.2772 3.88279 35.043 3.83628 34.762 3.83628C34.481 3.83628 34.2469 3.88279 34.0127 3.97582C33.7786 4.06884 33.5913 4.20837 33.4274 4.37116C33.2634 4.53395 33.123 4.74325 33.0293 4.9758C32.9356 5.20836 32.8888 5.48743 32.8888 5.76649C32.8888 6.04556 32.9356 6.30137 33.0293 6.55718C33.123 6.78974 33.2634 6.99904 33.4274 7.16182C33.5913 7.32461 33.7786 7.46415 34.0127 7.55717C34.2469 7.65019 34.481 7.6967 34.762 7.6967C35.043 7.6967 35.2772 7.65019 35.5113 7.55717C35.7455 7.46415 35.9562 7.32461 36.1201 7.16182C36.284 6.99904 36.4245 6.78974 36.5182 6.55718C36.5884 6.32463 36.6352 6.06881 36.6352 5.76649Z" fill="#FF6C0C"/>
<path d="M38.8828 3.13862H39.7258L39.7726 4.16186C39.9833 3.78977 40.2643 3.51071 40.6155 3.32466C40.9668 3.11536 41.3648 3.02234 41.7863 3.02234C42.1609 3.04559 42.5122 3.11536 42.84 3.23164C43.1444 3.37117 43.4254 3.55722 43.6595 3.78977C43.8937 4.02233 44.0576 4.32465 44.1747 4.65023C44.2917 4.9758 44.362 5.37115 44.362 5.78975C44.362 6.20835 44.2917 6.58043 44.1747 6.92927C44.0576 7.2781 43.8703 7.55717 43.6595 7.78972C43.4254 8.02228 43.1678 8.20832 42.84 8.34786C42.5122 8.48739 42.1609 8.5339 41.7629 8.5339C41.3882 8.5339 41.0136 8.44088 40.639 8.27809C40.2643 8.1153 39.9833 7.83623 39.7492 7.46414V10.906H38.8828V3.13862ZM41.6926 7.6967C42.2312 7.6967 42.6527 7.53391 42.9805 7.18508C43.3083 6.8595 43.4722 6.37113 43.4722 5.76649C43.4722 5.13859 43.3083 4.67348 42.9805 4.3479C42.6527 4.02233 42.2312 3.85954 41.6926 3.85954C41.4117 3.85954 41.1541 3.90605 40.9434 3.99907C40.7092 4.09209 40.5219 4.23163 40.358 4.39442C40.1941 4.5572 40.077 4.7665 39.9833 4.99906C39.8897 5.23161 39.8428 5.48742 39.8428 5.76649C39.8428 6.04556 39.8897 6.27811 39.9833 6.53392C40.077 6.76648 40.1941 6.97578 40.358 7.13857C40.5219 7.30136 40.7092 7.44089 40.9434 7.53391C41.1775 7.65019 41.4351 7.6967 41.6926 7.6967Z" fill="white"/>
<path d="M50.0053 8.3944L49.9819 7.46418C49.8648 7.65022 49.7477 7.78975 49.6072 7.92929C49.4667 8.06882 49.3028 8.16184 49.1389 8.25487C48.975 8.34789 48.7877 8.41765 48.6004 8.44091C48.4131 8.48742 48.2257 8.51068 48.0384 8.51068C47.6638 8.51068 47.3125 8.44091 46.9613 8.32463C46.6335 8.1851 46.3291 8.02231 46.0949 7.7665C45.8608 7.53394 45.6501 7.23162 45.5096 6.90604C45.3691 6.55721 45.2988 6.18512 45.2988 5.74327C45.2988 5.30141 45.3691 4.90607 45.5096 4.55724C45.6501 4.2084 45.8374 3.92934 46.0949 3.69678C46.3525 3.46423 46.6335 3.27818 46.9613 3.1619C47.2891 3.04563 47.6404 2.97586 48.015 2.97586C48.4365 2.97586 48.8111 3.06888 49.1623 3.23167C49.5136 3.39446 49.7711 3.67353 49.9819 4.04561V3.09214H50.8482V8.37114H50.0053V8.3944ZM48.0618 3.83632C47.8043 3.83632 47.5467 3.88283 47.3125 3.97585C47.0784 4.06887 46.8677 4.18515 46.7037 4.34794C46.5398 4.51073 46.3993 4.72003 46.3057 4.95258C46.212 5.20839 46.1652 5.4642 46.1652 5.78978C46.1652 6.0921 46.212 6.34791 46.3057 6.58047C46.3993 6.81302 46.5398 7.02232 46.7037 7.18511C46.8677 7.3479 47.0784 7.48743 47.3125 7.58045C47.5467 7.67348 47.8043 7.71999 48.0618 7.71999C48.4833 7.71999 48.8579 7.62697 49.1389 7.44092C49.4199 7.25488 49.6307 6.99907 49.7946 6.72C49.9351 6.44093 50.0053 6.11536 50.0053 5.78978C50.0053 5.44095 49.9351 5.13862 49.7946 4.85956C49.6541 4.58049 49.4433 4.32468 49.1389 4.13864C48.8579 3.92934 48.4833 3.83632 48.0618 3.83632Z" fill="white"/>
<path d="M53.9864 10.906H53.0264L54.1503 8.32462L51.9961 3.13864H53.0029L54.0566 5.85954L54.642 7.37115L55.204 5.85954L56.3747 3.11539H57.3348L53.9864 10.906Z" fill="white"/>
</svg>
